<?xml version="1.0" encoding="UTF-8" standalone="no"?>
<svg
   xmlns:dc="http://purl.org/dc/elements/1.1/"
   xmlns:cc="http://creativecommons.org/ns#"
   xmlns:rdf="http://www.w3.org/1999/02/22-rdf-syntax-ns#"
   xmlns:svg="http://www.w3.org/2000/svg"
   xmlns="http://www.w3.org/2000/svg"
   id="svg844"
   version="1.1"
   viewBox="0 0 100.0083 89.686401"
   height="89.686401mm"
   width="100.0083mm">
  <defs
     id="defs838">
    <clipPath
       id="clipPath22"
       clipPathUnits="userSpaceOnUse">
      <path
         id="path20"
         d="M 0,0 H 216.8932 V 194.50856 H 0 Z" />
    </clipPath>
  </defs>
  <metadata
     id="metadata841">
    <rdf:RDF>
      <cc:Work
         rdf:about="">
        <dc:format>image/svg+xml</dc:format>
        <dc:type
           rdf:resource="http://purl.org/dc/dcmitype/StillImage" />
        <dc:title></dc:title>
      </cc:Work>
    </rdf:RDF>
  </metadata>
  <g
     transform="translate(383.37915,40.396771)"
     id="layer1">
    <g
       id="g14"
       transform="matrix(0.46109467,0,0,-0.46109467,-383.37915,49.290089)">
      <g
         id="g16">
        <g
           id="g18" />
        <g
           id="g340">
          <g
             clip-path="url(#clipPath22)"
             id="g338">
            <g
               id="g336">
              <g
                 transform="matrix(1,0,0,-1,0,194.50856)"
                 id="g26">
                <path
                   d="M 0.152,0.301 H 105.691 V 171.258 H 0.152 Z"
                   style="fill:#cccccc;fill-opacity:1;fill-rule:nonzero;stroke:#000000;stroke-width:0.30873901;stroke-linecap:butt;stroke-linejoin:miter;stroke-miterlimit:4;stroke-dasharray:0.308739, 2.469911;stroke-dashoffset:0;stroke-opacity:1"
                   id="path24" />
              </g>
              <g
                 transform="matrix(1,0,0,-1,0,194.50856)"
                 id="g30">
                <path
                   d="M 3.059,11.828 H 50.594 V 119.09 H 3.059 Z"
                   style="fill:#ffffff;fill-opacity:1;fill-rule:nonzero;stroke:#000000;stroke-width:0.31279901;stroke-linecap:butt;stroke-linejoin:miter;stroke-miterlimit:4;stroke-dasharray:3.753585, 3.753585;stroke-dashoffset:0;stroke-opacity:1"
                   id="path28" />
              </g>
              <text
                 transform="matrix(1,0,0,-1,5.005959,175.36066)"
                 style="font-variant:normal;font-weight:bold;font-size:7.19999981px;font-family:'Liberation Sans';-inkscape-font-specification:LiberationSans-Bold;writing-mode:lr-tb;fill:#000000;fill-opacity:1;fill-rule:nonzero;stroke:none"
                 id="text34">
                <tspan
                   x="0 5.1984 9.5903997 12.3912"
                   y="0"
                   id="tspan32">Core</tspan>
              </text>
              <text
                 transform="matrix(1,0,0,-1,85.907251,7.193413)"
                 style="font-variant:normal;font-weight:normal;font-size:8px;font-family:'Liberation Sans';-inkscape-font-specification:LiberationSans;writing-mode:lr-tb;fill:#000000;fill-opacity:1;fill-rule:nonzero;stroke:none"
                 id="text38">
                <tspan
                   x="0 2.2160001 6.664 8.8800001 13.328 15.992 19.992001 24.440001 28.888 33.335999 37.807999 41.807999"
                   y="0"
                   id="tspan36">Interconnect</tspan>
              </text>
              <g
                 transform="matrix(1,0,0,-1,0,194.50856)"
                 id="g42">
                <path
                   d="m 5.129,179.082 h 206.285 c 1.57,0 2.836,1.262 2.836,2.832 v 5.375 c 0,1.57 -1.266,2.836 -2.836,2.836 H 5.129 c -1.57,0 -2.832,-1.266 -2.832,-2.836 v -5.375 c 0,-1.57 1.262,-2.832 2.832,-2.832 z"
                   style="fill:none;stroke:#000000;stroke-width:0.69999999;stroke-linecap:round;stroke-linejoin:miter;stroke-miterlimit:4;stroke-dasharray:none;stroke-opacity:1"
                   id="path40" />
              </g>
              <text
                 transform="matrix(1,0,0,-1,10.613472,44.331034)"
                 style="font-variant:normal;font-weight:normal;font-size:8px;font-family:'Liberation Sans';-inkscape-font-specification:LiberationSans;writing-mode:lr-tb;fill:#000000;fill-opacity:1;fill-rule:nonzero;stroke:none"
                 id="text48">
                <tspan
                   x="0 6.664 11.112 17.775999 22.247999 24.912001"
                   y="0"
                   id="tspan44">Memory</tspan>
                <tspan
                   x="-2.8984399 2.8775599 7.3255601 11.77356 13.98956 16.653561 21.101561 22.90156 24.677561 29.125561"
                   y="10"
                   id="tspan46">Controller</tspan>
              </text>
              <g
                 transform="matrix(1,0,0,-1,0,194.50856)"
                 id="g52">
                <path
                   d="m 7.422,141.434 h 35.676 c 1.57,0 2.836,1.261 2.836,2.832 v 18.226 c 0,1.57 -1.266,2.836 -2.836,2.836 H 7.422 c -1.57,0 -2.836,-1.266 -2.836,-2.836 v -18.226 c 0,-1.571 1.266,-2.832 2.836,-2.832 z"
                   style="fill:none;stroke:#000000;stroke-width:0.69999999;stroke-linecap:round;stroke-linejoin:miter;stroke-miterlimit:4;stroke-dasharray:none;stroke-opacity:1"
                   id="path50" />
              </g>
              <text
                 transform="matrix(1,0,0,-1,47.760688,62.799939)"
                 style="font-variant:normal;font-weight:normal;font-size:8px;font-family:'Liberation Sans';-inkscape-font-specification:LiberationSans;writing-mode:lr-tb;fill:#000000;fill-opacity:1;fill-rule:nonzero;stroke:none"
                 id="text56">
                <tspan
                   x="0 4.448"
                   y="0"
                   id="tspan54">L3</tspan>
              </text>
              <g
                 transform="matrix(1,0,0,-1,0,194.50856)"
                 id="g60">
                <path
                   d="m 6.328,123.434 h 92.07 c 1.571,0 2.836,1.261 2.836,2.832 v 5.375 c 0,1.57 -1.265,2.836 -2.836,2.836 H 6.328 c -1.57,0 -2.836,-1.266 -2.836,-2.836 v -5.375 c 0,-1.571 1.266,-2.832 2.836,-2.832 z"
                   style="fill:none;stroke:#000000;stroke-width:0.69999999;stroke-linecap:round;stroke-linejoin:miter;stroke-miterlimit:4;stroke-dasharray:none;stroke-opacity:1"
                   id="path58" />
              </g>
              <g
                 transform="matrix(1,0,0,-1,0,194.50856)"
                 id="g64">
                <path
                   d="m 78.723,113.758 v 9.344"
                   style="fill:none;stroke:#000000;stroke-width:2;stroke-linecap:butt;stroke-linejoin:miter;stroke-miterlimit:4;stroke-dasharray:none;stroke-opacity:1"
                   id="path62" />
              </g>
              <g
                 transform="matrix(1,0,0,-1,0,194.50856)"
                 id="g68">
                <path
                   d="m 26.828,114.191 v 9.055"
                   style="fill:none;stroke:#000000;stroke-width:2;stroke-linecap:butt;stroke-linejoin:miter;stroke-miterlimit:4;stroke-dasharray:none;stroke-opacity:1"
                   id="path66" />
              </g>
              <text
                 transform="matrix(1,0,0,-1,1.278113,186.38947)"
                 style="font-variant:normal;font-weight:bold;font-size:7.19999981px;font-family:'Liberation Sans';-inkscape-font-specification:LiberationSans-Bold;writing-mode:lr-tb;fill:#000000;fill-opacity:1;fill-rule:nonzero;stroke:none"
                 id="text72">
                <tspan
                   x="0 4.7951999 8.7983999 12.8016 16.8048 20.829599 25.2216"
                   y="0"
                   id="tspan70">Package</tspan>
              </text>
              <g
                 transform="matrix(1,0,0,-1,0,194.50856)"
                 id="g76">
                <path
                   d="m 25.262,134.367 v 7.379"
                   style="fill:none;stroke:#000000;stroke-width:2;stroke-linecap:butt;stroke-linejoin:miter;stroke-miterlimit:4;stroke-dasharray:none;stroke-opacity:1"
                   id="path74" />
              </g>
              <text
                 transform="matrix(1,0,0,-1,63.472041,101.34612)"
                 style="font-variant:normal;font-weight:normal;font-size:8px;font-family:'Liberation Sans';-inkscape-font-specification:LiberationSans;writing-mode:lr-tb;fill:#000000;fill-opacity:1;fill-rule:nonzero;stroke:none"
                 id="text80">
                <tspan
                   x="0 4.448 8.8959999 17.256001 22.136 26.584"
                   y="0"
                   id="tspan78">L1 TLB</tspan>
              </text>
              <g
                 transform="matrix(1,0,0,-1,0,194.50856)"
                 id="g84">
                <path
                   d="m 60.785,84.887 h 35.238 c 1.571,0 2.832,1.265 2.832,2.836 v 5.375 c 0,1.57 -1.261,2.836 -2.832,2.836 H 60.785 c -1.57,0 -2.836,-1.266 -2.836,-2.836 v -5.375 c 0,-1.571 1.266,-2.836 2.836,-2.836 z"
                   style="fill:none;stroke:#000000;stroke-width:0.69999999;stroke-linecap:round;stroke-linejoin:miter;stroke-miterlimit:4;stroke-dasharray:none;stroke-opacity:1"
                   id="path82" />
              </g>
              <g
                 transform="matrix(1,0,0,-1,0,194.50856)"
                 id="g88">
                <path
                   d="M 76.918,84.926 V 95.895"
                   style="fill:none;stroke:#000000;stroke-width:0.69999999;stroke-linecap:round;stroke-linejoin:miter;stroke-miterlimit:4;stroke-dasharray:none;stroke-opacity:1"
                   id="path86" />
              </g>
              <g
                 transform="matrix(1,0,0,-1,0,194.50856)"
                 id="g92">
                <path
                   d="m 54.953,11.52 h 47.535 V 119.09 H 54.953 Z"
                   style="fill:none;stroke:#000000;stroke-width:0.31324601;stroke-linecap:butt;stroke-linejoin:miter;stroke-miterlimit:4;stroke-dasharray:3.758953, 3.758953;stroke-dashoffset:0;stroke-opacity:1"
                   id="path90" />
              </g>
              <text
                 transform="matrix(1,0,0,-1,73.825107,83.211809)"
                 style="font-variant:normal;font-weight:normal;font-size:8px;font-family:'Liberation Sans';-inkscape-font-specification:LiberationSans;writing-mode:lr-tb;fill:#000000;fill-opacity:1;fill-rule:nonzero;stroke:none"
                 id="text96">
                <tspan
                   x="0 4.448"
                   y="0"
                   id="tspan94">L2</tspan>
              </text>
              <g
                 transform="matrix(1,0,0,-1,0,194.50856)"
                 id="g100">
                <path
                   d="m 60.785,102.98 h 35.238 c 1.571,0 2.832,1.266 2.832,2.836 v 5.375 c 0,1.571 -1.261,2.836 -2.832,2.836 H 60.785 c -1.57,0 -2.836,-1.265 -2.836,-2.836 v -5.375 c 0,-1.57 1.266,-2.836 2.836,-2.836 z"
                   style="fill:none;stroke:#000000;stroke-width:0.69999999;stroke-linecap:round;stroke-linejoin:miter;stroke-miterlimit:4;stroke-dasharray:none;stroke-opacity:1"
                   id="path98" />
              </g>
              <g
                 transform="matrix(1,0,0,-1,0,194.50856)"
                 id="g104">
                <path
                   d="m 82.594,45.461 5.828,4.121 5.828,-4.121 v 31.137 l -5.828,4.121 -5.828,-4.121 z"
                   style="fill:none;stroke:#000000;stroke-width:0.69999999;stroke-linecap:butt;stroke-linejoin:miter;stroke-miterlimit:4;stroke-dasharray:none;stroke-opacity:1"
                   id="path102" />
              </g>
              <text
                 transform="matrix(0,1,1,0,90.899134,117.89468)"
                 style="font-variant:normal;font-weight:normal;font-size:7.19999981px;font-family:'Liberation Sans';-inkscape-font-specification:LiberationSans;writing-mode:lr-tb;fill:#000000;fill-opacity:1;fill-rule:nonzero;stroke:none"
                 id="text108">
                <tspan
                   x="0 1.9944 7.1928 11.5848 15.7824 20.1744"
                   y="0"
                   id="tspan106">INT+FP</tspan>
              </text>
              <g
                 transform="matrix(1,0,0,-1,0,194.50856)"
                 id="g112">
                <path
                   d="m 63.309,45.461 5.828,4.121 5.828,-4.121 v 31.137 l -5.828,4.121 -5.828,-4.121 z"
                   style="fill:none;stroke:#000000;stroke-width:0.69999999;stroke-linecap:butt;stroke-linejoin:miter;stroke-miterlimit:4;stroke-dasharray:none;stroke-opacity:1"
                   id="path110" />
              </g>
              <text
                 transform="matrix(0,1,1,0,71.612483,124.60249)"
                 style="font-variant:normal;font-weight:normal;font-size:7.19999981px;font-family:'Liberation Sans';-inkscape-font-specification:LiberationSans;writing-mode:lr-tb;fill:#000000;fill-opacity:1;fill-rule:nonzero;stroke:none"
                 id="text116">
                <tspan
                   x="0 1.9944 7.1928"
                   y="0"
                   id="tspan114">INT</tspan>
              </text>
              <text
                 transform="matrix(1,0,0,-1,70.500891,159.20372)"
                 style="font-variant:normal;font-weight:normal;font-size:8px;font-family:'Liberation Sans';-inkscape-font-specification:LiberationSans;writing-mode:lr-tb;fill:#000000;fill-opacity:1;fill-rule:nonzero;stroke:none"
                 id="text120">
                <tspan
                   x="0 5.3280001 10.208"
                   y="0"
                   id="tspan118">BTB</tspan>
              </text>
              <g
                 transform="matrix(1,0,0,-1,0,194.50856)"
                 id="g124">
                <path
                   d="m 70.602,24.73 h 15.601 c 1.57,0 2.836,1.266 2.836,2.836 v 9.977 c 0,1.57 -1.266,2.832 -2.836,2.832 H 70.602 c -1.571,0 -2.836,-1.262 -2.836,-2.832 v -9.977 c 0,-1.57 1.265,-2.836 2.836,-2.836 z"
                   style="fill:none;stroke:#000000;stroke-width:0.69999999;stroke-linecap:round;stroke-linejoin:miter;stroke-miterlimit:4;stroke-dasharray:none;stroke-opacity:1"
                   id="path122" />
              </g>
              <text
                 transform="matrix(1,0,0,-1,56.327667,175.67169)"
                 style="font-variant:normal;font-weight:bold;font-size:7.19999981px;font-family:'Liberation Sans';-inkscape-font-specification:LiberationSans-Bold;writing-mode:lr-tb;fill:#000000;fill-opacity:1;fill-rule:nonzero;stroke:none"
                 id="text128">
                <tspan
                   x="0 5.1984 9.5903997 12.3912"
                   y="0"
                   id="tspan126">Core</tspan>
              </text>
              <g
                 transform="matrix(1,0,0,-1,0,194.50856)"
                 id="g132">
                <path
                   d="m 68.293,96.004 v 6.746"
                   style="fill:none;stroke:#000000;stroke-width:2;stroke-linecap:butt;stroke-linejoin:miter;stroke-miterlimit:4;stroke-dasharray:none;stroke-opacity:1"
                   id="path130" />
              </g>
              <g
                 transform="matrix(1,0,0,-1,0,194.50856)"
                 id="g136">
                <path
                   d="m 87.465,96.078 v 6.75"
                   style="fill:none;stroke:#000000;stroke-width:2;stroke-linecap:butt;stroke-linejoin:miter;stroke-miterlimit:4;stroke-dasharray:none;stroke-opacity:1"
                   id="path134" />
              </g>
              <text
                 transform="matrix(1,0,0,-1,12.150333,101.03508)"
                 style="font-variant:normal;font-weight:normal;font-size:8px;font-family:'Liberation Sans';-inkscape-font-specification:LiberationSans;writing-mode:lr-tb;fill:#000000;fill-opacity:1;fill-rule:nonzero;stroke:none"
                 id="text140">
                <tspan
                   x="0 4.448 8.8959999 17.256001 22.136 26.584"
                   y="0"
                   id="tspan138">L1 TLB</tspan>
              </text>
              <g
                 transform="matrix(1,0,0,-1,0,194.50856)"
                 id="g144">
                <path
                   d="m 9.465,85.199 h 35.234 c 1.571,0 2.836,1.266 2.836,2.836 v 5.375 c 0,1.57 -1.265,2.832 -2.836,2.832 H 9.465 c -1.574,0 -2.836,-1.262 -2.836,-2.832 v -5.375 c 0,-1.57 1.262,-2.836 2.836,-2.836 z"
                   style="fill:none;stroke:#000000;stroke-width:0.69999999;stroke-linecap:round;stroke-linejoin:miter;stroke-miterlimit:4;stroke-dasharray:none;stroke-opacity:1"
                   id="path142" />
              </g>
              <g
                 transform="matrix(1,0,0,-1,0,194.50856)"
                 id="g148">
                <path
                   d="M 25.598,85.238 V 96.207"
                   style="fill:none;stroke:#000000;stroke-width:0.69999999;stroke-linecap:round;stroke-linejoin:miter;stroke-miterlimit:4;stroke-dasharray:none;stroke-opacity:1"
                   id="path146" />
              </g>
              <text
                 transform="matrix(1,0,0,-1,22.503399,82.900768)"
                 style="font-variant:normal;font-weight:normal;font-size:8px;font-family:'Liberation Sans';-inkscape-font-specification:LiberationSans;writing-mode:lr-tb;fill:#000000;fill-opacity:1;fill-rule:nonzero;stroke:none"
                 id="text152">
                <tspan
                   x="0 4.448"
                   y="0"
                   id="tspan150">L2</tspan>
              </text>
              <g
                 transform="matrix(1,0,0,-1,0,194.50856)"
                 id="g156">
                <path
                   d="m 9.465,103.293 h 35.234 c 1.571,0 2.836,1.266 2.836,2.836 v 5.375 c 0,1.57 -1.265,2.832 -2.836,2.832 H 9.465 c -1.574,0 -2.836,-1.262 -2.836,-2.832 v -5.375 c 0,-1.57 1.262,-2.836 2.836,-2.836 z"
                   style="fill:none;stroke:#000000;stroke-width:0.69999999;stroke-linecap:round;stroke-linejoin:miter;stroke-miterlimit:4;stroke-dasharray:none;stroke-opacity:1"
                   id="path154" />
              </g>
              <g
                 transform="matrix(1,0,0,-1,0,194.50856)"
                 id="g160">
                <path
                   d="m 31.273,45.773 5.829,4.122 5.828,-4.122 V 76.91 l -5.828,4.121 -5.829,-4.121 z"
                   style="fill:none;stroke:#000000;stroke-width:0.69999999;stroke-linecap:butt;stroke-linejoin:miter;stroke-miterlimit:4;stroke-dasharray:none;stroke-opacity:1"
                   id="path158" />
              </g>
              <text
                 transform="matrix(0,1,1,0,39.577425,117.58364)"
                 style="font-variant:normal;font-weight:normal;font-size:7.19999981px;font-family:'Liberation Sans';-inkscape-font-specification:LiberationSans;writing-mode:lr-tb;fill:#000000;fill-opacity:1;fill-rule:nonzero;stroke:none"
                 id="text164">
                <tspan
                   x="0 1.9944 7.1928 11.5848 15.7824 20.1744"
                   y="0"
                   id="tspan162">INT+FP</tspan>
              </text>
              <g
                 transform="matrix(1,0,0,-1,0,194.50856)"
                 id="g168">
                <path
                   d="m 11.984,45.773 5.828,4.122 5.833,-4.122 V 76.91 l -5.833,4.121 -5.828,-4.121 z"
                   style="fill:none;stroke:#000000;stroke-width:0.69999999;stroke-linecap:butt;stroke-linejoin:miter;stroke-miterlimit:4;stroke-dasharray:none;stroke-opacity:1"
                   id="path166" />
              </g>
              <text
                 transform="matrix(0,1,1,0,20.290775,124.29145)"
                 style="font-variant:normal;font-weight:normal;font-size:7.19999981px;font-family:'Liberation Sans';-inkscape-font-specification:LiberationSans;writing-mode:lr-tb;fill:#000000;fill-opacity:1;fill-rule:nonzero;stroke:none"
                 id="text172">
                <tspan
                   x="0 1.9944 7.1928"
                   y="0"
                   id="tspan170">INT</tspan>
              </text>
              <text
                 transform="matrix(1,0,0,-1,19.179183,158.89268)"
                 style="font-variant:normal;font-weight:normal;font-size:8px;font-family:'Liberation Sans';-inkscape-font-specification:LiberationSans;writing-mode:lr-tb;fill:#000000;fill-opacity:1;fill-rule:nonzero;stroke:none"
                 id="text176">
                <tspan
                   x="0 5.3280001 10.208"
                   y="0"
                   id="tspan174">BTB</tspan>
              </text>
              <g
                 transform="matrix(1,0,0,-1,0,194.50856)"
                 id="g180">
                <path
                   d="m 19.281,25.043 h 15.602 c 1.57,0 2.836,1.262 2.836,2.832 v 9.977 c 0,1.57 -1.266,2.836 -2.836,2.836 H 19.281 c -1.57,0 -2.836,-1.266 -2.836,-2.836 v -9.977 c 0,-1.57 1.266,-2.832 2.836,-2.832 z"
                   style="fill:none;stroke:#000000;stroke-width:0.69999999;stroke-linecap:round;stroke-linejoin:miter;stroke-miterlimit:4;stroke-dasharray:none;stroke-opacity:1"
                   id="path178" />
              </g>
              <g
                 transform="matrix(1,0,0,-1,0,194.50856)"
                 id="g184">
                <path
                   d="m 16.969,96.312 v 6.75"
                   style="fill:none;stroke:#000000;stroke-width:2;stroke-linecap:butt;stroke-linejoin:miter;stroke-miterlimit:4;stroke-dasharray:none;stroke-opacity:1"
                   id="path182" />
              </g>
              <g
                 transform="matrix(1,0,0,-1,0,194.50856)"
                 id="g188">
                <path
                   d="m 36.145,96.391 v 6.75"
                   style="fill:none;stroke:#000000;stroke-width:2;stroke-linecap:butt;stroke-linejoin:miter;stroke-miterlimit:4;stroke-dasharray:none;stroke-opacity:1"
                   id="path186" />
              </g>
              <text
                 transform="matrix(1,0,0,-1,119.87894,44.331034)"
                 style="font-variant:normal;font-weight:normal;font-size:8px;font-family:'Liberation Sans';-inkscape-font-specification:LiberationSans;writing-mode:lr-tb;fill:#000000;fill-opacity:1;fill-rule:nonzero;stroke:none"
                 id="text194">
                <tspan
                   x="0 6.664 11.112 17.775999 22.247999 24.912001"
                   y="0"
                   id="tspan190">Memory</tspan>
                <tspan
                   x="-2.8984399 2.8775599 7.3255601 11.77356 13.98956 16.653561 21.101561 22.90156 24.677561 29.125561"
                   y="10"
                   id="tspan192">Controller</tspan>
              </text>
              <g
                 transform="matrix(1,0,0,-1,0,194.50856)"
                 id="g198">
                <path
                   d="m 116.688,141.434 h 35.675 c 1.571,0 2.836,1.261 2.836,2.832 v 18.226 c 0,1.57 -1.265,2.836 -2.836,2.836 h -35.675 c -1.571,0 -2.836,-1.266 -2.836,-2.836 v -18.226 c 0,-1.571 1.265,-2.832 2.836,-2.832 z"
                   style="fill:none;stroke:#000000;stroke-width:0.69999999;stroke-linecap:round;stroke-linejoin:miter;stroke-miterlimit:4;stroke-dasharray:none;stroke-opacity:1"
                   id="path196" />
              </g>
              <g
                 transform="matrix(1,0,0,-1,0,194.50856)"
                 id="g202">
                <path
                   d="M 109.418,0.145 H 214.957 V 171.258 H 109.418 Z"
                   style="fill:none;stroke:#000000;stroke-width:0.308878;stroke-linecap:butt;stroke-linejoin:miter;stroke-miterlimit:4;stroke-dasharray:0.308878, 2.471022;stroke-dashoffset:0;stroke-opacity:1"
                   id="path200" />
              </g>
              <text
                 transform="matrix(1,0,0,-1,120.84374,101.34612)"
                 style="font-variant:normal;font-weight:normal;font-size:8px;font-family:'Liberation Sans';-inkscape-font-specification:LiberationSans;writing-mode:lr-tb;fill:#000000;fill-opacity:1;fill-rule:nonzero;stroke:none"
                 id="text206">
                <tspan
                   x="0 4.448 8.8959999 17.256001 22.136 26.584"
                   y="0"
                   id="tspan204">L1 TLB</tspan>
              </text>
              <g
                 transform="matrix(1,0,0,-1,0,194.50856)"
                 id="g210">
                <path
                   d="m 118.156,84.887 h 35.239 c 1.57,0 2.832,1.265 2.832,2.836 v 5.375 c 0,1.57 -1.262,2.836 -2.832,2.836 h -35.239 c -1.57,0 -2.836,-1.266 -2.836,-2.836 v -5.375 c 0,-1.571 1.266,-2.836 2.836,-2.836 z"
                   style="fill:none;stroke:#000000;stroke-width:0.69999999;stroke-linecap:round;stroke-linejoin:miter;stroke-miterlimit:4;stroke-dasharray:none;stroke-opacity:1"
                   id="path208" />
              </g>
              <g
                 transform="matrix(1,0,0,-1,0,194.50856)"
                 id="g214">
                <path
                   d="M 134.289,84.926 V 95.895"
                   style="fill:none;stroke:#000000;stroke-width:0.69999999;stroke-linecap:round;stroke-linejoin:miter;stroke-miterlimit:4;stroke-dasharray:none;stroke-opacity:1"
                   id="path212" />
              </g>
              <g
                 transform="matrix(1,0,0,-1,0,194.50856)"
                 id="g218">
                <path
                   d="m 112.324,11.211 h 47.535 V 119.09 h -47.535 z"
                   style="fill:none;stroke:#000000;stroke-width:0.31369299;stroke-linecap:butt;stroke-linejoin:miter;stroke-miterlimit:4;stroke-dasharray:3.764313, 3.764313;stroke-dashoffset:0;stroke-opacity:1"
                   id="path216" />
              </g>
              <text
                 transform="matrix(1,0,0,-1,131.1968,83.211809)"
                 style="font-variant:normal;font-weight:normal;font-size:8px;font-family:'Liberation Sans';-inkscape-font-specification:LiberationSans;writing-mode:lr-tb;fill:#000000;fill-opacity:1;fill-rule:nonzero;stroke:none"
                 id="text222">
                <tspan
                   x="0 4.448"
                   y="0"
                   id="tspan220">L2</tspan>
              </text>
              <g
                 transform="matrix(1,0,0,-1,0,194.50856)"
                 id="g226">
                <path
                   d="m 118.156,102.98 h 35.239 c 1.57,0 2.832,1.266 2.832,2.836 v 5.375 c 0,1.571 -1.262,2.836 -2.832,2.836 h -35.239 c -1.57,0 -2.836,-1.265 -2.836,-2.836 v -5.375 c 0,-1.57 1.266,-2.836 2.836,-2.836 z"
                   style="fill:none;stroke:#000000;stroke-width:0.69999999;stroke-linecap:round;stroke-linejoin:miter;stroke-miterlimit:4;stroke-dasharray:none;stroke-opacity:1"
                   id="path224" />
              </g>
              <g
                 transform="matrix(1,0,0,-1,0,194.50856)"
                 id="g230">
                <path
                   d="m 139.965,45.461 5.828,4.121 5.828,-4.121 v 31.137 l -5.828,4.121 -5.828,-4.121 z"
                   style="fill:none;stroke:#000000;stroke-width:0.69999999;stroke-linecap:butt;stroke-linejoin:miter;stroke-miterlimit:4;stroke-dasharray:none;stroke-opacity:1"
                   id="path228" />
              </g>
              <text
                 transform="matrix(0,1,1,0,148.27083,117.89468)"
                 style="font-variant:normal;font-weight:normal;font-size:7.19999981px;font-family:'Liberation Sans';-inkscape-font-specification:LiberationSans;writing-mode:lr-tb;fill:#000000;fill-opacity:1;fill-rule:nonzero;stroke:none"
                 id="text234">
                <tspan
                   x="0 1.9944 7.1928 11.5848 15.7824 20.1744"
                   y="0"
                   id="tspan232">INT+FP</tspan>
              </text>
              <g
                 transform="matrix(1,0,0,-1,0,194.50856)"
                 id="g238">
                <path
                   d="m 120.68,45.461 5.828,4.121 5.828,-4.121 v 31.137 l -5.828,4.121 -5.828,-4.121 z"
                   style="fill:none;stroke:#000000;stroke-width:0.69999999;stroke-linecap:butt;stroke-linejoin:miter;stroke-miterlimit:4;stroke-dasharray:none;stroke-opacity:1"
                   id="path236" />
              </g>
              <text
                 transform="matrix(0,1,1,0,128.98418,124.60249)"
                 style="font-variant:normal;font-weight:normal;font-size:7.19999981px;font-family:'Liberation Sans';-inkscape-font-specification:LiberationSans;writing-mode:lr-tb;fill:#000000;fill-opacity:1;fill-rule:nonzero;stroke:none"
                 id="text242">
                <tspan
                   x="0 1.9944 7.1928"
                   y="0"
                   id="tspan240">INT</tspan>
              </text>
              <text
                 transform="matrix(1,0,0,-1,127.87259,159.20374)"
                 style="font-variant:normal;font-weight:normal;font-size:8px;font-family:'Liberation Sans';-inkscape-font-specification:LiberationSans;writing-mode:lr-tb;fill:#000000;fill-opacity:1;fill-rule:nonzero;stroke:none"
                 id="text246">
                <tspan
                   x="0 5.3280001 10.208"
                   y="0"
                   id="tspan244">BTB</tspan>
              </text>
              <g
                 transform="matrix(1,0,0,-1,0,194.50856)"
                 id="g250">
                <path
                   d="m 127.973,24.73 h 15.605 c 1.57,0 2.832,1.266 2.832,2.836 v 9.977 c 0,1.57 -1.262,2.832 -2.832,2.832 h -15.605 c -1.571,0 -2.836,-1.262 -2.836,-2.832 v -9.977 c 0,-1.57 1.265,-2.836 2.836,-2.836 z"
                   style="fill:none;stroke:#000000;stroke-width:0.69999999;stroke-linecap:round;stroke-linejoin:miter;stroke-miterlimit:4;stroke-dasharray:none;stroke-opacity:1"
                   id="path248" />
              </g>
              <text
                 transform="matrix(1,0,0,-1,113.69937,175.6717)"
                 style="font-variant:normal;font-weight:bold;font-size:7.19999981px;font-family:'Liberation Sans';-inkscape-font-specification:LiberationSans-Bold;writing-mode:lr-tb;fill:#000000;fill-opacity:1;fill-rule:nonzero;stroke:none"
                 id="text254">
                <tspan
                   x="0 5.1984 9.5903997 12.3912"
                   y="0"
                   id="tspan252">Core</tspan>
              </text>
              <g
                 transform="matrix(1,0,0,-1,0,194.50856)"
                 id="g258">
                <path
                   d="m 125.664,96.004 v 6.746"
                   style="fill:none;stroke:#000000;stroke-width:2;stroke-linecap:butt;stroke-linejoin:miter;stroke-miterlimit:4;stroke-dasharray:none;stroke-opacity:1"
                   id="path256" />
              </g>
              <g
                 transform="matrix(1,0,0,-1,0,194.50856)"
                 id="g262">
                <path
                   d="m 144.836,96.078 v 6.75"
                   style="fill:none;stroke:#000000;stroke-width:2;stroke-linecap:butt;stroke-linejoin:miter;stroke-miterlimit:4;stroke-dasharray:none;stroke-opacity:1"
                   id="path260" />
              </g>
              <text
                 transform="matrix(1,0,0,-1,145.06175,62.799939)"
                 style="font-variant:normal;font-weight:normal;font-size:8px;font-family:'Liberation Sans';-inkscape-font-specification:LiberationSans;writing-mode:lr-tb;fill:#000000;fill-opacity:1;fill-rule:nonzero;stroke:none"
                 id="text266">
                <tspan
                   x="0 4.448"
                   y="0"
                   id="tspan264">L3</tspan>
              </text>
              <g
                 transform="matrix(1,0,0,-1,0,194.50856)"
                 id="g270">
                <path
                   d="m 115.594,123.434 h 92.07 c 1.57,0 2.836,1.261 2.836,2.832 v 5.375 c 0,1.57 -1.266,2.836 -2.836,2.836 h -92.07 c -1.571,0 -2.836,-1.266 -2.836,-2.836 v -5.375 c 0,-1.571 1.265,-2.832 2.836,-2.832 z"
                   style="fill:none;stroke:#000000;stroke-width:0.69999999;stroke-linecap:round;stroke-linejoin:miter;stroke-miterlimit:4;stroke-dasharray:none;stroke-opacity:1"
                   id="path268" />
              </g>
              <path
                 d="m 159.219,193.579 h 57.676 V 0.001 h -57.676 z"
                 style="fill:#ffffff;fill-opacity:1;fill-rule:nonzero;stroke:none"
                 id="path272" />
              <g
                 transform="matrix(1,0,0,-1,0,194.50856)"
                 id="g276">
                <path
                   d="m 136.094,114.191 v 9.055"
                   style="fill:none;stroke:#000000;stroke-width:2;stroke-linecap:butt;stroke-linejoin:miter;stroke-miterlimit:4;stroke-dasharray:none;stroke-opacity:1"
                   id="path274" />
              </g>
              <text
                 transform="matrix(1,0,0,-1,110.54359,186.38947)"
                 style="font-variant:normal;font-weight:bold;font-size:7.19999981px;font-family:'Liberation Sans';-inkscape-font-specification:LiberationSans-Bold;writing-mode:lr-tb;fill:#000000;fill-opacity:1;fill-rule:nonzero;stroke:none"
                 id="text280">
                <tspan
                   x="0 4.7951999 8.7983999 12.8016 16.8048 20.829599 25.2216"
                   y="0"
                   id="tspan278">Package</tspan>
              </text>
              <g
                 transform="matrix(1,0,0,-1,0,194.50856)"
                 id="g284">
                <path
                   d="m 134.527,134.371 v 7.379"
                   style="fill:none;stroke:#000000;stroke-width:2;stroke-linecap:butt;stroke-linejoin:miter;stroke-miterlimit:4;stroke-dasharray:none;stroke-opacity:1"
                   id="path282" />
              </g>
              <g
                 transform="matrix(1,0,0,-1,0,194.50856)"
                 id="g288">
                <path
                   d="M 4.094,171.414 H 215.465"
                   style="fill:none;stroke:#980101;stroke-width:1;stroke-linecap:round;stroke-linejoin:miter;stroke-miterlimit:4;stroke-dasharray:2, 4;stroke-dashoffset:0;stroke-opacity:1"
                   id="path286" />
              </g>
              <g
                 transform="matrix(1,0,0,-1,0,194.50856)"
                 id="g292">
                <path
                   d="M 4.094,138.281 H 215.465"
                   style="fill:none;stroke:#980101;stroke-width:1;stroke-linecap:round;stroke-linejoin:miter;stroke-miterlimit:4;stroke-dasharray:2, 4;stroke-dashoffset:0;stroke-opacity:1"
                   id="path290" />
              </g>
              <g
                 transform="matrix(1,0,0,-1,0,194.50856)"
                 id="g296">
                <path
                   d="M 4.094,119.262 H 215.465"
                   style="fill:none;stroke:#980101;stroke-width:1;stroke-linecap:round;stroke-linejoin:miter;stroke-miterlimit:4;stroke-dasharray:2, 4;stroke-dashoffset:0;stroke-opacity:1"
                   id="path294" />
              </g>
              <g
                 transform="matrix(1,0,0,-1,0,194.50856)"
                 id="g300">
                <path
                   d="M 4.094,82.141 H 215.465"
                   style="fill:none;stroke:#980101;stroke-width:1;stroke-linecap:round;stroke-linejoin:miter;stroke-miterlimit:4;stroke-dasharray:2, 4;stroke-dashoffset:0;stroke-opacity:1"
                   id="path298" />
              </g>
              <text
                 transform="matrix(1,0,0,-1,177.6017,41.196109)"
                 style="font-style:italic;font-variant:normal;font-size:7.19999981px;font-family:'Liberation Sans';-inkscape-font-specification:LiberationSans-Italic;writing-mode:lr-tb;fill:#000000;fill-opacity:1;fill-rule:nonzero;stroke:none"
                 id="text322">
                <tspan
                   x="0 5.1984 10.3968 16.3944"
                   y="0"
                   id="tspan302">NUMA</tspan>
                <tspan
                   x="-0.40781233 3.1921878 7.1953878 11.198587 13.596188 17.599388"
                   y="9"
                   id="tspan304">shared</tspan>
                <tspan
                   x="-2.6824219 1.3207781 5.3239779 8.9239779 12.523978 16.527178 20.530378"
                   y="-26.076269"
                   id="tspan306">package</tspan>
                <tspan
                   x="-0.080860317 3.5191398 7.5223398 11.525539 13.92314 17.92634"
                   y="-17.076269"
                   id="tspan308">shared</tspan>
                <tspan
                   x="3.5999956 7.1999955 11.203196 13.600796"
                   y="-55.220406"
                   id="tspan310">core</tspan>
                <tspan
                   x="-0.40781951 3.1921804 7.1953807 11.198581 13.596181 17.59938"
                   y="-46.220406"
                   id="tspan312">shared</tspan>
                <tspan
                   x="-0.60117912 2.9988208 6.5988207 10.198821 12.193221 16.196421"
                   y="28.223734"
                   id="tspan314">system</tspan>
                <tspan
                   x="-0.21446064 3.3855393 7.3887396 11.391939 13.789539 17.79274"
                   y="37.223736"
                   id="tspan316">shared</tspan>
                <tspan
                   x="0.3937428 2.3881428 6.3913426 8.7889423 12.792143 16.795343"
                   y="-89.886467"
                   id="tspan318">thread</tspan>
                <tspan
                   x="-0.40781879 3.1921811 7.1953812 11.198581 13.596181 17.59938"
                   y="-80.886467"
                   id="tspan320">shared</tspan>
              </text>
              <g
                 transform="matrix(1,0,0,-1,0,194.50856)"
                 id="g326">
                <path
                   d="m 70.238,134.434 v 44.597"
                   style="fill:none;stroke:#000000;stroke-width:2;stroke-linecap:butt;stroke-linejoin:miter;stroke-miterlimit:4;stroke-dasharray:none;stroke-opacity:1"
                   id="path324" />
              </g>
              <g
                 transform="matrix(1,0,0,-1,0,194.50856)"
                 id="g330">
                <path
                   d="m 25.086,165.645 v 13.742"
                   style="fill:none;stroke:#000000;stroke-width:2;stroke-linecap:butt;stroke-linejoin:miter;stroke-miterlimit:4;stroke-dasharray:none;stroke-opacity:1"
                   id="path328" />
              </g>
              <g
                 transform="matrix(1,0,0,-1,0,194.50856)"
                 id="g334">
                <path
                   d="m 135.023,165.391 v 13.738"
                   style="fill:none;stroke:#000000;stroke-width:2;stroke-linecap:butt;stroke-linejoin:miter;stroke-miterlimit:4;stroke-dasharray:none;stroke-opacity:1"
                   id="path332" />
              </g>
            </g>
          </g>
        </g>
      </g>
    </g>
  </g>
</svg>
